<mxfile host="65bd71144e">
    <diagram id="4TJKe_6oD3056fA61Nhv" name="Page-1">
        <mxGraphModel dx="657" dy="694" grid="1" gridSize="10" guides="1" tooltips="1" connect="1" arrows="1" fold="1" page="1" pageScale="1" pageWidth="1654" pageHeight="1169" math="0" shadow="0">
            <root>
                <mxCell id="0"/>
                <mxCell id="1" parent="0"/>
                <mxCell id="35" value="" style="shape=partialRectangle;connectable=0;fillColor=none;top=0;left=0;bottom=0;right=0;editable=1;overflow=hidden;whiteSpace=wrap;html=1;fontSize=12.5;" parent="1" vertex="1">
                    <mxGeometry x="60" y="230" width="80" height="30" as="geometry">
                        <mxRectangle width="80" height="30" as="alternateBounds"/>
                    </mxGeometry>
                </mxCell>
                <mxCell id="88" value="" style="group;fontSize=12.5;fillColor=#ffe6cc;strokeColor=#d79b00;" parent="1" vertex="1" connectable="0">
                    <mxGeometry x="480" y="80" width="280" height="150" as="geometry"/>
                </mxCell>
                <mxCell id="40" value="" style="shape=table;startSize=0;container=1;collapsible=1;childLayout=tableLayout;fixedRows=1;rowLines=0;fontStyle=0;align=center;resizeLast=1;strokeColor=#d79b00;fillColor=#ffe6cc;collapsible=0;whiteSpace=wrap;html=1;fontSize=12.5;" parent="88" vertex="1">
                    <mxGeometry y="30" width="180" height="30" as="geometry"/>
                </mxCell>
                <mxCell id="41" value="" style="shape=tableRow;horizontal=0;startSize=0;swimlaneHead=0;swimlaneBody=0;fillColor=#ffe6cc;collapsible=0;dropTarget=0;points=[[0,0.5],[1,0.5]];portConstraint=eastwest;top=0;left=0;right=0;bottom=0;fontSize=12.5;strokeColor=#d79b00;" parent="40" vertex="1">
                    <mxGeometry width="180" height="30" as="geometry"/>
                </mxCell>
                <mxCell id="42" value="Column Name" style="shape=partialRectangle;connectable=0;fillColor=#ffe6cc;top=0;left=0;bottom=0;right=0;editable=1;overflow=hidden;fontStyle=1;fontSize=12.5;strokeColor=#d79b00;" parent="41" vertex="1">
                    <mxGeometry width="100" height="30" as="geometry">
                        <mxRectangle width="100" height="30" as="alternateBounds"/>
                    </mxGeometry>
                </mxCell>
                <mxCell id="43" value="type" style="shape=partialRectangle;connectable=0;fillColor=#ffe6cc;top=0;left=0;bottom=0;right=0;align=left;spacingLeft=6;overflow=hidden;fontStyle=1;fontSize=12.5;strokeColor=#d79b00;" parent="41" vertex="1">
                    <mxGeometry x="100" width="80" height="30" as="geometry">
                        <mxRectangle width="80" height="30" as="alternateBounds"/>
                    </mxGeometry>
                </mxCell>
                <mxCell id="44" value="&lt;b&gt;&lt;font&gt;location_uni&lt;/font&gt;&lt;/b&gt;" style="whiteSpace=wrap;html=1;align=center;fontSize=12.5;fillColor=#ffe6cc;strokeColor=#d79b00;" parent="88" vertex="1">
                    <mxGeometry width="280" height="30" as="geometry"/>
                </mxCell>
                <mxCell id="45" value="&lt;span&gt;key&lt;/span&gt;" style="whiteSpace=wrap;html=1;align=center;fontStyle=1;fontSize=12.5;fillColor=#ffe6cc;strokeColor=#d79b00;" parent="88" vertex="1">
                    <mxGeometry x="180" y="30" width="100" height="30" as="geometry"/>
                </mxCell>
                <mxCell id="46" value="" style="shape=table;startSize=0;container=1;collapsible=1;childLayout=tableLayout;fixedRows=1;rowLines=0;fontStyle=0;align=center;resizeLast=1;strokeColor=#d79b00;fillColor=#ffe6cc;collapsible=0;whiteSpace=wrap;html=1;fontSize=12.5;" parent="88" vertex="1">
                    <mxGeometry y="60" width="180" height="30" as="geometry"/>
                </mxCell>
                <mxCell id="47" value="" style="shape=tableRow;horizontal=0;startSize=0;swimlaneHead=0;swimlaneBody=0;fillColor=#ffe6cc;collapsible=0;dropTarget=0;points=[[0,0.5],[1,0.5]];portConstraint=eastwest;top=0;left=0;right=0;bottom=0;fontSize=12.5;strokeColor=#d79b00;" parent="46" vertex="1">
                    <mxGeometry width="180" height="30" as="geometry"/>
                </mxCell>
                <mxCell id="48" value="location_id" style="shape=partialRectangle;connectable=0;fillColor=#ffe6cc;top=0;left=0;bottom=0;right=0;editable=1;overflow=hidden;fontSize=12.5;strokeColor=#d79b00;" parent="47" vertex="1">
                    <mxGeometry width="100" height="30" as="geometry">
                        <mxRectangle width="100" height="30" as="alternateBounds"/>
                    </mxGeometry>
                </mxCell>
                <mxCell id="49" value="VARCHAR" style="shape=partialRectangle;connectable=0;fillColor=#ffe6cc;top=0;left=0;bottom=0;right=0;align=left;spacingLeft=6;overflow=hidden;fontSize=12.5;strokeColor=#d79b00;" parent="47" vertex="1">
                    <mxGeometry x="100" width="80" height="30" as="geometry">
                        <mxRectangle width="80" height="30" as="alternateBounds"/>
                    </mxGeometry>
                </mxCell>
                <mxCell id="50" value="&lt;span&gt;&lt;font style=&quot;color: rgb(0, 0, 255);&quot;&gt;Primary key (PK)&lt;/font&gt;&lt;/span&gt;" style="whiteSpace=wrap;html=1;align=center;fontStyle=0;fontSize=12.5;fillColor=#ffe6cc;strokeColor=#d79b00;" parent="88" vertex="1">
                    <mxGeometry x="180" y="60" width="100" height="30" as="geometry"/>
                </mxCell>
                <mxCell id="51" value="" style="shape=table;startSize=0;container=1;collapsible=1;childLayout=tableLayout;fixedRows=1;rowLines=0;fontStyle=0;align=center;resizeLast=1;strokeColor=#d79b00;fillColor=#ffe6cc;collapsible=0;whiteSpace=wrap;html=1;fontSize=12.5;" parent="88" vertex="1">
                    <mxGeometry y="90" width="180" height="30" as="geometry"/>
                </mxCell>
                <mxCell id="52" value="" style="shape=tableRow;horizontal=0;startSize=0;swimlaneHead=0;swimlaneBody=0;fillColor=#ffe6cc;collapsible=0;dropTarget=0;points=[[0,0.5],[1,0.5]];portConstraint=eastwest;top=0;left=0;right=0;bottom=0;fontSize=12.5;strokeColor=#d79b00;" parent="51" vertex="1">
                    <mxGeometry width="180" height="30" as="geometry"/>
                </mxCell>
                <mxCell id="53" value="site_name" style="shape=partialRectangle;connectable=0;fillColor=#ffe6cc;top=0;left=0;bottom=0;right=0;editable=1;overflow=hidden;fontSize=12.5;strokeColor=#d79b00;" parent="52" vertex="1">
                    <mxGeometry width="100" height="30" as="geometry">
                        <mxRectangle width="100" height="30" as="alternateBounds"/>
                    </mxGeometry>
                </mxCell>
                <mxCell id="54" value="TEXT" style="shape=partialRectangle;connectable=0;fillColor=#ffe6cc;top=0;left=0;bottom=0;right=0;align=left;spacingLeft=6;overflow=hidden;fontSize=12.5;strokeColor=#d79b00;" parent="52" vertex="1">
                    <mxGeometry x="100" width="80" height="30" as="geometry">
                        <mxRectangle width="80" height="30" as="alternateBounds"/>
                    </mxGeometry>
                </mxCell>
                <mxCell id="55" value="" style="whiteSpace=wrap;html=1;align=center;fontStyle=1;fontSize=12.5;fillColor=#ffe6cc;strokeColor=#d79b00;" parent="88" vertex="1">
                    <mxGeometry x="180" y="90" width="100" height="30" as="geometry"/>
                </mxCell>
                <mxCell id="56" value="" style="shape=table;startSize=0;container=1;collapsible=1;childLayout=tableLayout;fixedRows=1;rowLines=0;fontStyle=0;align=center;resizeLast=1;strokeColor=#d79b00;fillColor=#ffe6cc;collapsible=0;whiteSpace=wrap;html=1;fontSize=12.5;" parent="88" vertex="1">
                    <mxGeometry y="120" width="180" height="30" as="geometry"/>
                </mxCell>
                <mxCell id="57" value="" style="shape=tableRow;horizontal=0;startSize=0;swimlaneHead=0;swimlaneBody=0;fillColor=#ffe6cc;collapsible=0;dropTarget=0;points=[[0,0.5],[1,0.5]];portConstraint=eastwest;top=0;left=0;right=0;bottom=0;fontSize=12.5;strokeColor=#d79b00;" parent="56" vertex="1">
                    <mxGeometry width="180" height="30" as="geometry"/>
                </mxCell>
                <mxCell id="58" value="unit_name" style="shape=partialRectangle;connectable=0;fillColor=#ffe6cc;top=0;left=0;bottom=0;right=0;editable=1;overflow=hidden;fontSize=12.5;strokeColor=#d79b00;" parent="57" vertex="1">
                    <mxGeometry width="100" height="30" as="geometry">
                        <mxRectangle width="100" height="30" as="alternateBounds"/>
                    </mxGeometry>
                </mxCell>
                <mxCell id="59" value="TEXT" style="shape=partialRectangle;connectable=0;fillColor=#ffe6cc;top=0;left=0;bottom=0;right=0;align=left;spacingLeft=6;overflow=hidden;fontSize=12.5;strokeColor=#d79b00;" parent="57" vertex="1">
                    <mxGeometry x="100" width="80" height="30" as="geometry">
                        <mxRectangle width="80" height="30" as="alternateBounds"/>
                    </mxGeometry>
                </mxCell>
                <mxCell id="60" value="" style="whiteSpace=wrap;html=1;align=center;fontStyle=1;fontSize=12.5;fillColor=#ffe6cc;strokeColor=#d79b00;" parent="88" vertex="1">
                    <mxGeometry x="180" y="120" width="100" height="30" as="geometry"/>
                </mxCell>
                <mxCell id="89" value="" style="group;fontSize=12.5;fillColor=#ffe6cc;strokeColor=#d79b00;" parent="1" vertex="1" connectable="0">
                    <mxGeometry x="100" y="190" width="310" height="200" as="geometry"/>
                </mxCell>
                <mxCell id="61" value="" style="shape=table;startSize=0;container=1;collapsible=1;childLayout=tableLayout;fixedRows=1;rowLines=0;fontStyle=1;align=center;resizeLast=1;strokeColor=#d79b00;fillColor=#ffe6cc;collapsible=0;whiteSpace=wrap;html=1;fontFamily=Helvetica;fontSize=12.5;" parent="89" vertex="1">
                    <mxGeometry y="30" width="180" height="30" as="geometry"/>
                </mxCell>
                <mxCell id="62" value="" style="shape=tableRow;horizontal=0;startSize=0;swimlaneHead=0;swimlaneBody=0;fillColor=#ffe6cc;collapsible=0;dropTarget=0;points=[[0,0.5],[1,0.5]];portConstraint=eastwest;top=0;left=0;right=0;bottom=0;fontSize=12.5;strokeColor=#d79b00;" parent="61" vertex="1">
                    <mxGeometry width="180" height="30" as="geometry"/>
                </mxCell>
                <mxCell id="63" value="Column Name" style="shape=partialRectangle;connectable=0;fillColor=#ffe6cc;top=0;left=0;bottom=0;right=0;editable=1;overflow=hidden;fontStyle=1;fontSize=12.5;strokeColor=#d79b00;" parent="62" vertex="1">
                    <mxGeometry width="100" height="30" as="geometry">
                        <mxRectangle width="100" height="30" as="alternateBounds"/>
                    </mxGeometry>
                </mxCell>
                <mxCell id="64" value="type" style="shape=partialRectangle;connectable=0;fillColor=#ffe6cc;top=0;left=0;bottom=0;right=0;align=left;spacingLeft=6;overflow=hidden;fontStyle=1;fontSize=12.5;strokeColor=#d79b00;" parent="62" vertex="1">
                    <mxGeometry x="100" width="80" height="30" as="geometry">
                        <mxRectangle width="80" height="30" as="alternateBounds"/>
                    </mxGeometry>
                </mxCell>
                <mxCell id="65" value="&lt;b&gt;&lt;font&gt;asset&lt;/font&gt;&lt;/b&gt;" style="whiteSpace=wrap;html=1;align=center;fontSize=12.5;fillColor=#ffe6cc;strokeColor=#d79b00;" parent="89" vertex="1">
                    <mxGeometry width="310" height="30" as="geometry"/>
                </mxCell>
                <mxCell id="66" value="&lt;span&gt;key&lt;/span&gt;" style="whiteSpace=wrap;html=1;align=center;fontStyle=1;fontSize=12.5;fillColor=#ffe6cc;strokeColor=#d79b00;" parent="89" vertex="1">
                    <mxGeometry x="180" y="30" width="130" height="30" as="geometry"/>
                </mxCell>
                <mxCell id="67" value="" style="shape=table;startSize=0;container=1;collapsible=1;childLayout=tableLayout;fixedRows=1;rowLines=0;fontStyle=0;align=center;resizeLast=1;strokeColor=#d79b00;fillColor=#ffe6cc;collapsible=0;whiteSpace=wrap;html=1;fontSize=12.5;" parent="89" vertex="1">
                    <mxGeometry y="60" width="180" height="30" as="geometry"/>
                </mxCell>
                <mxCell id="68" value="" style="shape=tableRow;horizontal=0;startSize=0;swimlaneHead=0;swimlaneBody=0;fillColor=#ffe6cc;collapsible=0;dropTarget=0;points=[[0,0.5],[1,0.5]];portConstraint=eastwest;top=0;left=0;right=0;bottom=0;fontSize=12.5;strokeColor=#d79b00;" parent="67" vertex="1">
                    <mxGeometry width="180" height="30" as="geometry"/>
                </mxCell>
                <mxCell id="69" value="asset_id" style="shape=partialRectangle;connectable=0;fillColor=#ffe6cc;top=0;left=0;bottom=0;right=0;editable=1;overflow=hidden;fontSize=12.5;strokeColor=#d79b00;" parent="68" vertex="1">
                    <mxGeometry width="100" height="30" as="geometry">
                        <mxRectangle width="100" height="30" as="alternateBounds"/>
                    </mxGeometry>
                </mxCell>
                <mxCell id="70" value="VARCHAR" style="shape=partialRectangle;connectable=0;fillColor=#ffe6cc;top=0;left=0;bottom=0;right=0;align=left;spacingLeft=6;overflow=hidden;fontSize=12.5;strokeColor=#d79b00;" parent="68" vertex="1">
                    <mxGeometry x="100" width="80" height="30" as="geometry">
                        <mxRectangle width="80" height="30" as="alternateBounds"/>
                    </mxGeometry>
                </mxCell>
                <mxCell id="71" value="&lt;span style=&quot;font-weight: 400;&quot;&gt;&lt;font style=&quot;color: rgb(0, 0, 255);&quot;&gt;PK&lt;/font&gt;&lt;/span&gt;" style="whiteSpace=wrap;html=1;align=center;fontStyle=1;fontSize=12.5;fillColor=#ffe6cc;strokeColor=#d79b00;" parent="89" vertex="1">
                    <mxGeometry x="180" y="60" width="130" height="30" as="geometry"/>
                </mxCell>
                <mxCell id="72" value="" style="shape=table;startSize=0;container=1;collapsible=1;childLayout=tableLayout;fixedRows=1;rowLines=0;fontStyle=0;align=center;resizeLast=1;strokeColor=#d79b00;fillColor=#ffe6cc;collapsible=0;whiteSpace=wrap;html=1;fontSize=12.5;" parent="89" vertex="1">
                    <mxGeometry y="90" width="180" height="30" as="geometry"/>
                </mxCell>
                <mxCell id="73" value="" style="shape=tableRow;horizontal=0;startSize=0;swimlaneHead=0;swimlaneBody=0;fillColor=#ffe6cc;collapsible=0;dropTarget=0;points=[[0,0.5],[1,0.5]];portConstraint=eastwest;top=0;left=0;right=0;bottom=0;fontSize=12.5;strokeColor=#d79b00;" parent="72" vertex="1">
                    <mxGeometry width="180" height="30" as="geometry"/>
                </mxCell>
                <mxCell id="74" value="external_code" style="shape=partialRectangle;connectable=0;fillColor=#ffe6cc;top=0;left=0;bottom=0;right=0;editable=1;overflow=hidden;fontSize=12.5;strokeColor=#d79b00;" parent="73" vertex="1">
                    <mxGeometry width="100" height="30" as="geometry">
                        <mxRectangle width="100" height="30" as="alternateBounds"/>
                    </mxGeometry>
                </mxCell>
                <mxCell id="75" value="TEXT" style="shape=partialRectangle;connectable=0;fillColor=#ffe6cc;top=0;left=0;bottom=0;right=0;align=left;spacingLeft=6;overflow=hidden;fontSize=12.5;strokeColor=#d79b00;" parent="73" vertex="1">
                    <mxGeometry x="100" width="80" height="30" as="geometry">
                        <mxRectangle width="80" height="30" as="alternateBounds"/>
                    </mxGeometry>
                </mxCell>
                <mxCell id="76" value="" style="whiteSpace=wrap;html=1;align=center;fontStyle=1;fontSize=12.5;fillColor=#ffe6cc;strokeColor=#d79b00;" parent="89" vertex="1">
                    <mxGeometry x="180" y="90" width="130" height="30" as="geometry"/>
                </mxCell>
                <mxCell id="77" value="" style="shape=table;startSize=0;container=1;collapsible=1;childLayout=tableLayout;fixedRows=1;rowLines=0;fontStyle=0;align=center;resizeLast=1;strokeColor=#d79b00;fillColor=#ffe6cc;collapsible=0;whiteSpace=wrap;html=1;fontSize=12.5;" parent="89" vertex="1">
                    <mxGeometry y="120" width="180" height="30" as="geometry"/>
                </mxCell>
                <mxCell id="78" value="" style="shape=tableRow;horizontal=0;startSize=0;swimlaneHead=0;swimlaneBody=0;fillColor=#ffe6cc;collapsible=0;dropTarget=0;points=[[0,0.5],[1,0.5]];portConstraint=eastwest;top=0;left=0;right=0;bottom=0;fontSize=12.5;strokeColor=#d79b00;" parent="77" vertex="1">
                    <mxGeometry width="180" height="30" as="geometry"/>
                </mxCell>
                <mxCell id="79" value="category" style="shape=partialRectangle;connectable=0;fillColor=#ffe6cc;top=0;left=0;bottom=0;right=0;editable=1;overflow=hidden;fontSize=12.5;strokeColor=#d79b00;" parent="78" vertex="1">
                    <mxGeometry width="100" height="30" as="geometry">
                        <mxRectangle width="100" height="30" as="alternateBounds"/>
                    </mxGeometry>
                </mxCell>
                <mxCell id="80" value="TEXT" style="shape=partialRectangle;connectable=0;fillColor=#ffe6cc;top=0;left=0;bottom=0;right=0;align=left;spacingLeft=6;overflow=hidden;fontSize=12.5;strokeColor=#d79b00;" parent="78" vertex="1">
                    <mxGeometry x="100" width="80" height="30" as="geometry">
                        <mxRectangle width="80" height="30" as="alternateBounds"/>
                    </mxGeometry>
                </mxCell>
                <mxCell id="82" value="" style="shape=table;startSize=0;container=1;collapsible=1;childLayout=tableLayout;fixedRows=1;rowLines=0;align=center;resizeLast=1;strokeColor=#d79b00;fillColor=#ffe6cc;collapsible=0;whiteSpace=wrap;html=1;fontSize=12.5;" parent="89" vertex="1">
                    <mxGeometry y="150" width="180" height="50" as="geometry"/>
                </mxCell>
                <mxCell id="83" value="" style="shape=tableRow;horizontal=0;startSize=0;swimlaneHead=0;swimlaneBody=0;fillColor=#ffe6cc;collapsible=0;dropTarget=0;points=[[0,0.5],[1,0.5]];portConstraint=eastwest;top=0;left=0;right=0;bottom=0;fontSize=12.5;strokeColor=#d79b00;" parent="82" vertex="1">
                    <mxGeometry width="180" height="50" as="geometry"/>
                </mxCell>
                <mxCell id="84" value="location_id" style="shape=partialRectangle;connectable=0;fillColor=#ffe6cc;top=0;left=0;bottom=0;right=0;editable=1;overflow=hidden;autosize=1;fontSize=12.5;strokeColor=#d79b00;" parent="83" vertex="1">
                    <mxGeometry width="90" height="50" as="geometry">
                        <mxRectangle width="90" height="50" as="alternateBounds"/>
                    </mxGeometry>
                </mxCell>
                <mxCell id="85" value="VARCHAR" style="shape=partialRectangle;connectable=0;fillColor=#ffe6cc;top=0;left=0;bottom=0;right=0;align=left;spacingLeft=6;overflow=hidden;fontSize=12.5;strokeColor=#d79b00;" parent="83" vertex="1">
                    <mxGeometry x="90" width="90" height="50" as="geometry">
                        <mxRectangle width="90" height="50" as="alternateBounds"/>
                    </mxGeometry>
                </mxCell>
                <mxCell id="86" value="&lt;font style=&quot;color: rgb(0, 0, 255); font-weight: normal;&quot;&gt;Foreign key &lt;br&gt;(FK)&amp;nbsp;→ location_unit.&lt;/font&gt;&lt;div&gt;&lt;font style=&quot;color: rgb(0, 0, 255); font-weight: normal;&quot;&gt;location_id&lt;/font&gt;&lt;/div&gt;" style="whiteSpace=wrap;html=1;align=center;fontStyle=1;fontSize=12.5;fillColor=#ffe6cc;strokeColor=#d79b00;" parent="89" vertex="1">
                    <mxGeometry x="180" y="150" width="130" height="50" as="geometry"/>
                </mxCell>
                <mxCell id="87" value="" style="whiteSpace=wrap;html=1;align=center;fontStyle=1;fontSize=12.5;fillColor=#ffe6cc;strokeColor=#d79b00;" parent="89" vertex="1">
                    <mxGeometry x="180" y="120" width="130" height="30" as="geometry"/>
                </mxCell>
                <mxCell id="259" value="" style="shape=table;startSize=0;container=1;collapsible=1;childLayout=tableLayout;fixedRows=1;rowLines=0;fontStyle=1;align=center;resizeLast=1;strokeColor=#d79b00;fillColor=#ffe6cc;collapsible=0;whiteSpace=wrap;html=1;fontFamily=Helvetica;fontSize=12.5;" parent="1" vertex="1">
                    <mxGeometry x="90" y="470" width="180" height="30" as="geometry"/>
                </mxCell>
                <mxCell id="260" value="" style="shape=tableRow;horizontal=0;startSize=0;swimlaneHead=0;swimlaneBody=0;fillColor=#ffe6cc;collapsible=0;dropTarget=0;points=[[0,0.5],[1,0.5]];portConstraint=eastwest;top=0;left=0;right=0;bottom=0;fontSize=12.5;strokeColor=#d79b00;" parent="259" vertex="1">
                    <mxGeometry width="180" height="30" as="geometry"/>
                </mxCell>
                <mxCell id="261" value="Column Name" style="shape=partialRectangle;connectable=0;fillColor=#ffe6cc;top=0;left=0;bottom=0;right=0;editable=1;overflow=hidden;fontStyle=1;fontSize=12.5;strokeColor=#d79b00;" parent="260" vertex="1">
                    <mxGeometry width="100" height="30" as="geometry">
                        <mxRectangle width="100" height="30" as="alternateBounds"/>
                    </mxGeometry>
                </mxCell>
                <mxCell id="262" value="type" style="shape=partialRectangle;connectable=0;fillColor=#ffe6cc;top=0;left=0;bottom=0;right=0;align=left;spacingLeft=6;overflow=hidden;fontStyle=1;fontSize=12.5;strokeColor=#d79b00;" parent="260" vertex="1">
                    <mxGeometry x="100" width="80" height="30" as="geometry">
                        <mxRectangle width="80" height="30" as="alternateBounds"/>
                    </mxGeometry>
                </mxCell>
                <mxCell id="263" value="&lt;b&gt;&lt;font&gt;calendar_dim&lt;/font&gt;&lt;/b&gt;" style="whiteSpace=wrap;html=1;align=center;fontSize=12.5;fillColor=#ffe6cc;strokeColor=#d79b00;" parent="1" vertex="1">
                    <mxGeometry x="90" y="440" width="310" height="30" as="geometry"/>
                </mxCell>
                <mxCell id="264" value="&lt;span&gt;key&lt;/span&gt;" style="whiteSpace=wrap;html=1;align=center;fontStyle=1;fontSize=12.5;fillColor=#ffe6cc;strokeColor=#d79b00;" parent="1" vertex="1">
                    <mxGeometry x="270" y="470" width="130" height="30" as="geometry"/>
                </mxCell>
                <mxCell id="265" value="" style="shape=table;startSize=0;container=1;collapsible=1;childLayout=tableLayout;fixedRows=1;rowLines=0;fontStyle=0;align=center;resizeLast=1;strokeColor=#d79b00;fillColor=#ffe6cc;collapsible=0;whiteSpace=wrap;html=1;fontSize=12.5;" parent="1" vertex="1">
                    <mxGeometry x="90" y="500" width="180" height="30" as="geometry"/>
                </mxCell>
                <mxCell id="266" value="" style="shape=tableRow;horizontal=0;startSize=0;swimlaneHead=0;swimlaneBody=0;fillColor=#ffe6cc;collapsible=0;dropTarget=0;points=[[0,0.5],[1,0.5]];portConstraint=eastwest;top=0;left=0;right=0;bottom=0;fontSize=12.5;strokeColor=#d79b00;" parent="265" vertex="1">
                    <mxGeometry width="180" height="30" as="geometry"/>
                </mxCell>
                <mxCell id="267" value="date" style="shape=partialRectangle;connectable=0;fillColor=#ffe6cc;top=0;left=0;bottom=0;right=0;editable=1;overflow=hidden;fontSize=12.5;strokeColor=#d79b00;" parent="266" vertex="1">
                    <mxGeometry width="100" height="30" as="geometry">
                        <mxRectangle width="100" height="30" as="alternateBounds"/>
                    </mxGeometry>
                </mxCell>
                <mxCell id="268" value="DATA" style="shape=partialRectangle;connectable=0;fillColor=#ffe6cc;top=0;left=0;bottom=0;right=0;align=left;spacingLeft=6;overflow=hidden;fontSize=12.5;strokeColor=#d79b00;" parent="266" vertex="1">
                    <mxGeometry x="100" width="80" height="30" as="geometry">
                        <mxRectangle width="80" height="30" as="alternateBounds"/>
                    </mxGeometry>
                </mxCell>
                <mxCell id="269" value="&lt;span style=&quot;font-weight: 400;&quot;&gt;&lt;font style=&quot;color: rgb(0, 0, 255);&quot;&gt;PK&lt;/font&gt;&lt;/span&gt;" style="whiteSpace=wrap;html=1;align=center;fontStyle=1;fontSize=12.5;fillColor=#ffe6cc;strokeColor=#d79b00;" parent="1" vertex="1">
                    <mxGeometry x="270" y="500" width="130" height="30" as="geometry"/>
                </mxCell>
                <mxCell id="270" value="" style="shape=table;startSize=0;container=1;collapsible=1;childLayout=tableLayout;fixedRows=1;rowLines=0;fontStyle=0;align=center;resizeLast=1;strokeColor=#d79b00;fillColor=#ffe6cc;collapsible=0;whiteSpace=wrap;html=1;fontSize=12.5;" parent="1" vertex="1">
                    <mxGeometry x="90" y="530" width="180" height="30" as="geometry"/>
                </mxCell>
                <mxCell id="271" value="" style="shape=tableRow;horizontal=0;startSize=0;swimlaneHead=0;swimlaneBody=0;fillColor=#ffe6cc;collapsible=0;dropTarget=0;points=[[0,0.5],[1,0.5]];portConstraint=eastwest;top=0;left=0;right=0;bottom=0;fontSize=12.5;strokeColor=#d79b00;" parent="270" vertex="1">
                    <mxGeometry width="180" height="30" as="geometry"/>
                </mxCell>
                <mxCell id="272" value="year" style="shape=partialRectangle;connectable=0;fillColor=#ffe6cc;top=0;left=0;bottom=0;right=0;editable=1;overflow=hidden;fontSize=12.5;strokeColor=#d79b00;" parent="271" vertex="1">
                    <mxGeometry width="100" height="30" as="geometry">
                        <mxRectangle width="100" height="30" as="alternateBounds"/>
                    </mxGeometry>
                </mxCell>
                <mxCell id="273" value="INT" style="shape=partialRectangle;connectable=0;fillColor=#ffe6cc;top=0;left=0;bottom=0;right=0;align=left;spacingLeft=6;overflow=hidden;fontSize=12.5;strokeColor=#d79b00;" parent="271" vertex="1">
                    <mxGeometry x="100" width="80" height="30" as="geometry">
                        <mxRectangle width="80" height="30" as="alternateBounds"/>
                    </mxGeometry>
                </mxCell>
                <mxCell id="274" value="" style="whiteSpace=wrap;html=1;align=center;fontStyle=1;fontSize=12.5;fillColor=#ffe6cc;strokeColor=#d79b00;" parent="1" vertex="1">
                    <mxGeometry x="270" y="530" width="130" height="30" as="geometry"/>
                </mxCell>
                <mxCell id="275" value="" style="shape=table;startSize=0;container=1;collapsible=1;childLayout=tableLayout;fixedRows=1;rowLines=0;fontStyle=0;align=center;resizeLast=1;strokeColor=#d79b00;fillColor=#ffe6cc;collapsible=0;whiteSpace=wrap;html=1;fontSize=12.5;" parent="1" vertex="1">
                    <mxGeometry x="90" y="560" width="180" height="30" as="geometry"/>
                </mxCell>
                <mxCell id="276" value="" style="shape=tableRow;horizontal=0;startSize=0;swimlaneHead=0;swimlaneBody=0;fillColor=#ffe6cc;collapsible=0;dropTarget=0;points=[[0,0.5],[1,0.5]];portConstraint=eastwest;top=0;left=0;right=0;bottom=0;fontSize=12.5;strokeColor=#d79b00;" parent="275" vertex="1">
                    <mxGeometry width="180" height="30" as="geometry"/>
                </mxCell>
                <mxCell id="277" value="mobth" style="shape=partialRectangle;connectable=0;fillColor=#ffe6cc;top=0;left=0;bottom=0;right=0;editable=1;overflow=hidden;fontSize=12.5;strokeColor=#d79b00;" parent="276" vertex="1">
                    <mxGeometry width="100" height="30" as="geometry">
                        <mxRectangle width="100" height="30" as="alternateBounds"/>
                    </mxGeometry>
                </mxCell>
                <mxCell id="278" value="INT" style="shape=partialRectangle;connectable=0;fillColor=#ffe6cc;top=0;left=0;bottom=0;right=0;align=left;spacingLeft=6;overflow=hidden;fontSize=12.5;strokeColor=#d79b00;" parent="276" vertex="1">
                    <mxGeometry x="100" width="80" height="30" as="geometry">
                        <mxRectangle width="80" height="30" as="alternateBounds"/>
                    </mxGeometry>
                </mxCell>
                <mxCell id="284" value="" style="whiteSpace=wrap;html=1;align=center;fontStyle=1;fontSize=12.5;fillColor=#ffe6cc;strokeColor=#d79b00;" parent="1" vertex="1">
                    <mxGeometry x="270" y="560" width="130" height="30" as="geometry"/>
                </mxCell>
                <mxCell id="286" value="" style="shape=table;startSize=0;container=1;collapsible=1;childLayout=tableLayout;fixedRows=1;rowLines=0;fontStyle=0;align=center;resizeLast=1;strokeColor=#d79b00;fillColor=#ffe6cc;collapsible=0;whiteSpace=wrap;html=1;fontSize=12.5;" parent="1" vertex="1">
                    <mxGeometry x="90" y="590" width="180" height="30" as="geometry"/>
                </mxCell>
                <mxCell id="287" value="" style="shape=tableRow;horizontal=0;startSize=0;swimlaneHead=0;swimlaneBody=0;fillColor=#ffe6cc;collapsible=0;dropTarget=0;points=[[0,0.5],[1,0.5]];portConstraint=eastwest;top=0;left=0;right=0;bottom=0;fontSize=12.5;strokeColor=#d79b00;" parent="286" vertex="1">
                    <mxGeometry width="180" height="30" as="geometry"/>
                </mxCell>
                <mxCell id="288" value="quarter" style="shape=partialRectangle;connectable=0;fillColor=#ffe6cc;top=0;left=0;bottom=0;right=0;editable=1;overflow=hidden;fontSize=12.5;strokeColor=#d79b00;" parent="287" vertex="1">
                    <mxGeometry width="100" height="30" as="geometry">
                        <mxRectangle width="100" height="30" as="alternateBounds"/>
                    </mxGeometry>
                </mxCell>
                <mxCell id="289" value="INT" style="shape=partialRectangle;connectable=0;fillColor=#ffe6cc;top=0;left=0;bottom=0;right=0;align=left;spacingLeft=6;overflow=hidden;fontSize=12.5;strokeColor=#d79b00;" parent="287" vertex="1">
                    <mxGeometry x="100" width="80" height="30" as="geometry">
                        <mxRectangle width="80" height="30" as="alternateBounds"/>
                    </mxGeometry>
                </mxCell>
                <mxCell id="290" value="" style="whiteSpace=wrap;html=1;align=center;fontStyle=1;fontSize=12.5;fillColor=#ffe6cc;strokeColor=#d79b00;" parent="1" vertex="1">
                    <mxGeometry x="270" y="590" width="130" height="30" as="geometry"/>
                </mxCell>
                <mxCell id="296" value="" style="edgeStyle=entityRelationEdgeStyle;fontSize=12.5;html=1;endArrow=ERoneToMany;entryX=0;entryY=0.5;entryDx=0;entryDy=0;exitX=1;exitY=0.5;exitDx=0;exitDy=0;" parent="1" source="86" target="47" edge="1">
                    <mxGeometry width="100" height="100" relative="1" as="geometry">
                        <mxPoint x="360" y="320" as="sourcePoint"/>
                        <mxPoint x="450" y="220" as="targetPoint"/>
                    </mxGeometry>
                </mxCell>
                <mxCell id="297" value="" style="group;fontSize=12.5;fillColor=#d5e8d4;strokeColor=#82b366;" parent="1" vertex="1" connectable="0">
                    <mxGeometry x="500" y="280" width="310" height="490" as="geometry"/>
                </mxCell>
                <mxCell id="92" value="" style="shape=table;startSize=0;container=1;collapsible=1;childLayout=tableLayout;fixedRows=1;rowLines=0;fontStyle=1;align=center;resizeLast=1;strokeColor=#82b366;fillColor=#d5e8d4;collapsible=0;whiteSpace=wrap;html=1;fontFamily=Helvetica;fontSize=12.5;" parent="297" vertex="1">
                    <mxGeometry y="30" width="180" height="30" as="geometry"/>
                </mxCell>
                <mxCell id="93" value="" style="shape=tableRow;horizontal=0;startSize=0;swimlaneHead=0;swimlaneBody=0;fillColor=#d5e8d4;collapsible=0;dropTarget=0;points=[[0,0.5],[1,0.5]];portConstraint=eastwest;top=0;left=0;right=0;bottom=0;fontSize=12.5;strokeColor=#82b366;" parent="92" vertex="1">
                    <mxGeometry width="180" height="30" as="geometry"/>
                </mxCell>
                <mxCell id="94" value="Column Name" style="shape=partialRectangle;connectable=0;fillColor=#d5e8d4;top=0;left=0;bottom=0;right=0;editable=1;overflow=hidden;fontStyle=1;fontSize=12.5;strokeColor=#82b366;" parent="93" vertex="1">
                    <mxGeometry width="100" height="30" as="geometry">
                        <mxRectangle width="100" height="30" as="alternateBounds"/>
                    </mxGeometry>
                </mxCell>
                <mxCell id="95" value="type" style="shape=partialRectangle;connectable=0;fillColor=#d5e8d4;top=0;left=0;bottom=0;right=0;align=left;spacingLeft=6;overflow=hidden;fontStyle=1;fontSize=12.5;strokeColor=#82b366;" parent="93" vertex="1">
                    <mxGeometry x="100" width="80" height="30" as="geometry">
                        <mxRectangle width="80" height="30" as="alternateBounds"/>
                    </mxGeometry>
                </mxCell>
                <mxCell id="96" value="&lt;b&gt;&lt;font&gt;event_log&lt;/font&gt;&lt;/b&gt;" style="whiteSpace=wrap;html=1;align=center;fontSize=12.5;fillColor=#d5e8d4;strokeColor=#82b366;" parent="297" vertex="1">
                    <mxGeometry width="310" height="30" as="geometry"/>
                </mxCell>
                <mxCell id="97" value="&lt;span&gt;key&lt;/span&gt;" style="whiteSpace=wrap;html=1;align=center;fontStyle=1;fontSize=12.5;fillColor=#d5e8d4;strokeColor=#82b366;" parent="297" vertex="1">
                    <mxGeometry x="180" y="30" width="130" height="30" as="geometry"/>
                </mxCell>
                <mxCell id="98" value="" style="shape=table;startSize=0;container=1;collapsible=1;childLayout=tableLayout;fixedRows=1;rowLines=0;fontStyle=0;align=center;resizeLast=1;strokeColor=#82b366;fillColor=#d5e8d4;collapsible=0;whiteSpace=wrap;html=1;fontSize=12.5;" parent="297" vertex="1">
                    <mxGeometry y="60" width="180" height="30" as="geometry"/>
                </mxCell>
                <mxCell id="99" value="" style="shape=tableRow;horizontal=0;startSize=0;swimlaneHead=0;swimlaneBody=0;fillColor=#d5e8d4;collapsible=0;dropTarget=0;points=[[0,0.5],[1,0.5]];portConstraint=eastwest;top=0;left=0;right=0;bottom=0;fontSize=12.5;strokeColor=#82b366;" parent="98" vertex="1">
                    <mxGeometry width="180" height="30" as="geometry"/>
                </mxCell>
                <mxCell id="100" value="event_id" style="shape=partialRectangle;connectable=0;fillColor=#d5e8d4;top=0;left=0;bottom=0;right=0;editable=1;overflow=hidden;fontSize=12.5;strokeColor=#82b366;" parent="99" vertex="1">
                    <mxGeometry width="100" height="30" as="geometry">
                        <mxRectangle width="100" height="30" as="alternateBounds"/>
                    </mxGeometry>
                </mxCell>
                <mxCell id="101" value="SERIAL" style="shape=partialRectangle;connectable=0;fillColor=#d5e8d4;top=0;left=0;bottom=0;right=0;align=left;spacingLeft=6;overflow=hidden;fontSize=12.5;strokeColor=#82b366;" parent="99" vertex="1">
                    <mxGeometry x="100" width="80" height="30" as="geometry">
                        <mxRectangle width="80" height="30" as="alternateBounds"/>
                    </mxGeometry>
                </mxCell>
                <mxCell id="102" value="&lt;span style=&quot;font-weight: 400;&quot;&gt;&lt;font style=&quot;color: rgb(0, 0, 255);&quot;&gt;PK&lt;/font&gt;&lt;/span&gt;" style="whiteSpace=wrap;html=1;align=center;fontStyle=1;fontSize=12.5;fillColor=#d5e8d4;strokeColor=#82b366;" parent="297" vertex="1">
                    <mxGeometry x="180" y="60" width="130" height="30" as="geometry"/>
                </mxCell>
                <mxCell id="103" value="" style="shape=table;startSize=0;container=1;collapsible=1;childLayout=tableLayout;fixedRows=1;rowLines=0;fontStyle=0;align=center;resizeLast=1;strokeColor=#82b366;fillColor=#d5e8d4;collapsible=0;whiteSpace=wrap;html=1;fontSize=12.5;" parent="297" vertex="1">
                    <mxGeometry y="90" width="180" height="30" as="geometry"/>
                </mxCell>
                <mxCell id="104" value="" style="shape=tableRow;horizontal=0;startSize=0;swimlaneHead=0;swimlaneBody=0;fillColor=#d5e8d4;collapsible=0;dropTarget=0;points=[[0,0.5],[1,0.5]];portConstraint=eastwest;top=0;left=0;right=0;bottom=0;fontSize=12.5;strokeColor=#82b366;" parent="103" vertex="1">
                    <mxGeometry width="180" height="30" as="geometry"/>
                </mxCell>
                <mxCell id="105" value="asset_id" style="shape=partialRectangle;connectable=0;fillColor=#d5e8d4;top=0;left=0;bottom=0;right=0;editable=1;overflow=hidden;fontSize=12.5;strokeColor=#82b366;" parent="104" vertex="1">
                    <mxGeometry width="100" height="30" as="geometry">
                        <mxRectangle width="100" height="30" as="alternateBounds"/>
                    </mxGeometry>
                </mxCell>
                <mxCell id="106" value="VARCHAR" style="shape=partialRectangle;connectable=0;fillColor=#d5e8d4;top=0;left=0;bottom=0;right=0;align=left;spacingLeft=6;overflow=hidden;fontSize=12.5;strokeColor=#82b366;" parent="104" vertex="1">
                    <mxGeometry x="100" width="80" height="30" as="geometry">
                        <mxRectangle width="80" height="30" as="alternateBounds"/>
                    </mxGeometry>
                </mxCell>
                <mxCell id="108" value="" style="shape=table;startSize=0;container=1;collapsible=1;childLayout=tableLayout;fixedRows=1;rowLines=0;fontStyle=0;align=center;resizeLast=1;strokeColor=#82b366;fillColor=#d5e8d4;collapsible=0;whiteSpace=wrap;html=1;fontSize=12.5;" parent="297" vertex="1">
                    <mxGeometry y="120" width="180" height="30" as="geometry"/>
                </mxCell>
                <mxCell id="109" value="" style="shape=tableRow;horizontal=0;startSize=0;swimlaneHead=0;swimlaneBody=0;fillColor=#d5e8d4;collapsible=0;dropTarget=0;points=[[0,0.5],[1,0.5]];portConstraint=eastwest;top=0;left=0;right=0;bottom=0;fontSize=12.5;strokeColor=#82b366;" parent="108" vertex="1">
                    <mxGeometry width="180" height="30" as="geometry"/>
                </mxCell>
                <mxCell id="110" value="start_time" style="shape=partialRectangle;connectable=0;fillColor=#d5e8d4;top=0;left=0;bottom=0;right=0;editable=1;overflow=hidden;fontSize=12.5;strokeColor=#82b366;" parent="109" vertex="1">
                    <mxGeometry width="100" height="30" as="geometry">
                        <mxRectangle width="100" height="30" as="alternateBounds"/>
                    </mxGeometry>
                </mxCell>
                <mxCell id="111" value="DATETIME" style="shape=partialRectangle;connectable=0;fillColor=#d5e8d4;top=0;left=0;bottom=0;right=0;align=left;spacingLeft=6;overflow=hidden;fontSize=12.5;strokeColor=#82b366;" parent="109" vertex="1">
                    <mxGeometry x="100" width="80" height="30" as="geometry">
                        <mxRectangle width="80" height="30" as="alternateBounds"/>
                    </mxGeometry>
                </mxCell>
                <mxCell id="117" value="" style="whiteSpace=wrap;html=1;align=center;fontStyle=1;fontSize=12.5;fillColor=#d5e8d4;strokeColor=#82b366;" parent="297" vertex="1">
                    <mxGeometry x="180" y="120" width="130" height="30" as="geometry"/>
                </mxCell>
                <mxCell id="118" value="&lt;span style=&quot;font-weight: normal;&quot;&gt;&lt;font style=&quot;color: rgb(0, 0, 255);&quot;&gt;FK → asset.asset_id&lt;/font&gt;&lt;/span&gt;" style="whiteSpace=wrap;html=1;align=center;fontStyle=1;fontSize=12.5;fillColor=#d5e8d4;strokeColor=#82b366;" parent="297" vertex="1">
                    <mxGeometry x="180" y="90" width="130" height="30" as="geometry"/>
                </mxCell>
                <mxCell id="119" value="" style="shape=table;startSize=0;container=1;collapsible=1;childLayout=tableLayout;fixedRows=1;rowLines=0;fontStyle=0;align=center;resizeLast=1;strokeColor=#82b366;fillColor=#d5e8d4;collapsible=0;whiteSpace=wrap;html=1;fontSize=12.5;" parent="297" vertex="1">
                    <mxGeometry y="150" width="180" height="30" as="geometry"/>
                </mxCell>
                <mxCell id="120" value="" style="shape=tableRow;horizontal=0;startSize=0;swimlaneHead=0;swimlaneBody=0;fillColor=#d5e8d4;collapsible=0;dropTarget=0;points=[[0,0.5],[1,0.5]];portConstraint=eastwest;top=0;left=0;right=0;bottom=0;fontSize=12.5;strokeColor=#82b366;" parent="119" vertex="1">
                    <mxGeometry width="180" height="30" as="geometry"/>
                </mxCell>
                <mxCell id="121" value="stop_time" style="shape=partialRectangle;connectable=0;fillColor=#d5e8d4;top=0;left=0;bottom=0;right=0;editable=1;overflow=hidden;fontSize=12.5;strokeColor=#82b366;" parent="120" vertex="1">
                    <mxGeometry width="100" height="30" as="geometry">
                        <mxRectangle width="100" height="30" as="alternateBounds"/>
                    </mxGeometry>
                </mxCell>
                <mxCell id="122" value="DATETIME" style="shape=partialRectangle;connectable=0;fillColor=#d5e8d4;top=0;left=0;bottom=0;right=0;align=left;spacingLeft=6;overflow=hidden;fontSize=12.5;strokeColor=#82b366;" parent="120" vertex="1">
                    <mxGeometry x="100" width="80" height="30" as="geometry">
                        <mxRectangle width="80" height="30" as="alternateBounds"/>
                    </mxGeometry>
                </mxCell>
                <mxCell id="128" value="" style="whiteSpace=wrap;html=1;align=center;fontStyle=1;fontSize=12.5;fillColor=#d5e8d4;strokeColor=#82b366;" parent="297" vertex="1">
                    <mxGeometry x="180" y="150" width="130" height="30" as="geometry"/>
                </mxCell>
                <mxCell id="131" value="" style="shape=table;startSize=0;container=1;collapsible=1;childLayout=tableLayout;fixedRows=1;rowLines=0;fontStyle=0;align=center;resizeLast=1;strokeColor=#82b366;fillColor=#d5e8d4;collapsible=0;whiteSpace=wrap;html=1;fontSize=12.5;" parent="297" vertex="1">
                    <mxGeometry y="180" width="180" height="30" as="geometry"/>
                </mxCell>
                <mxCell id="132" value="" style="shape=tableRow;horizontal=0;startSize=0;swimlaneHead=0;swimlaneBody=0;fillColor=#d5e8d4;collapsible=0;dropTarget=0;points=[[0,0.5],[1,0.5]];portConstraint=eastwest;top=0;left=0;right=0;bottom=0;fontSize=12.5;strokeColor=#82b366;" parent="131" vertex="1">
                    <mxGeometry width="180" height="30" as="geometry"/>
                </mxCell>
                <mxCell id="133" value="duration_min" style="shape=partialRectangle;connectable=0;fillColor=#d5e8d4;top=0;left=0;bottom=0;right=0;editable=1;overflow=hidden;fontSize=12.5;strokeColor=#82b366;" parent="132" vertex="1">
                    <mxGeometry width="100" height="30" as="geometry">
                        <mxRectangle width="100" height="30" as="alternateBounds"/>
                    </mxGeometry>
                </mxCell>
                <mxCell id="134" value="FLOAT" style="shape=partialRectangle;connectable=0;fillColor=#d5e8d4;top=0;left=0;bottom=0;right=0;align=left;spacingLeft=6;overflow=hidden;fontSize=12.5;strokeColor=#82b366;" parent="132" vertex="1">
                    <mxGeometry x="100" width="80" height="30" as="geometry">
                        <mxRectangle width="80" height="30" as="alternateBounds"/>
                    </mxGeometry>
                </mxCell>
                <mxCell id="135" value="" style="whiteSpace=wrap;html=1;align=center;fontStyle=1;fontSize=12.5;fillColor=#d5e8d4;strokeColor=#82b366;" parent="297" vertex="1">
                    <mxGeometry x="180" y="180" width="130" height="30" as="geometry"/>
                </mxCell>
                <mxCell id="136" value="" style="shape=table;startSize=0;container=1;collapsible=1;childLayout=tableLayout;fixedRows=1;rowLines=0;fontStyle=0;align=center;resizeLast=1;strokeColor=#82b366;fillColor=#d5e8d4;collapsible=0;whiteSpace=wrap;html=1;fontSize=12.5;" parent="297" vertex="1">
                    <mxGeometry y="210" width="180" height="30" as="geometry"/>
                </mxCell>
                <mxCell id="137" value="" style="shape=tableRow;horizontal=0;startSize=0;swimlaneHead=0;swimlaneBody=0;fillColor=#d5e8d4;collapsible=0;dropTarget=0;points=[[0,0.5],[1,0.5]];portConstraint=eastwest;top=0;left=0;right=0;bottom=0;fontSize=12.5;strokeColor=#82b366;" parent="136" vertex="1">
                    <mxGeometry width="180" height="30" as="geometry"/>
                </mxCell>
                <mxCell id="138" value="shift_type" style="shape=partialRectangle;connectable=0;fillColor=#d5e8d4;top=0;left=0;bottom=0;right=0;editable=1;overflow=hidden;fontSize=12.5;strokeColor=#82b366;" parent="137" vertex="1">
                    <mxGeometry width="100" height="30" as="geometry">
                        <mxRectangle width="100" height="30" as="alternateBounds"/>
                    </mxGeometry>
                </mxCell>
                <mxCell id="139" value="TEXT" style="shape=partialRectangle;connectable=0;fillColor=#d5e8d4;top=0;left=0;bottom=0;right=0;align=left;spacingLeft=6;overflow=hidden;fontSize=12.5;strokeColor=#82b366;" parent="137" vertex="1">
                    <mxGeometry x="100" width="80" height="30" as="geometry">
                        <mxRectangle width="80" height="30" as="alternateBounds"/>
                    </mxGeometry>
                </mxCell>
                <mxCell id="140" value="" style="whiteSpace=wrap;html=1;align=center;fontStyle=1;fontSize=12.5;fillColor=#d5e8d4;strokeColor=#82b366;" parent="297" vertex="1">
                    <mxGeometry x="180" y="210" width="130" height="30" as="geometry"/>
                </mxCell>
                <mxCell id="141" value="" style="shape=table;startSize=0;container=1;collapsible=1;childLayout=tableLayout;fixedRows=1;rowLines=0;fontStyle=0;align=center;resizeLast=1;strokeColor=#82b366;fillColor=#d5e8d4;collapsible=0;whiteSpace=wrap;html=1;fontSize=12.5;" parent="297" vertex="1">
                    <mxGeometry y="240" width="180" height="40" as="geometry"/>
                </mxCell>
                <mxCell id="142" value="" style="shape=tableRow;horizontal=0;startSize=0;swimlaneHead=0;swimlaneBody=0;fillColor=#d5e8d4;collapsible=0;dropTarget=0;points=[[0,0.5],[1,0.5]];portConstraint=eastwest;top=0;left=0;right=0;bottom=0;fontSize=12.5;strokeColor=#82b366;" parent="141" vertex="1">
                    <mxGeometry width="180" height="40" as="geometry"/>
                </mxCell>
                <mxCell id="143" value="event_date" style="shape=partialRectangle;connectable=0;fillColor=#d5e8d4;top=0;left=0;bottom=0;right=0;editable=1;overflow=hidden;fontSize=12.5;strokeColor=#82b366;" parent="142" vertex="1">
                    <mxGeometry width="100" height="40" as="geometry">
                        <mxRectangle width="100" height="40" as="alternateBounds"/>
                    </mxGeometry>
                </mxCell>
                <mxCell id="144" value="DATE" style="shape=partialRectangle;connectable=0;fillColor=#d5e8d4;top=0;left=0;bottom=0;right=0;align=left;spacingLeft=6;overflow=hidden;fontSize=12.5;strokeColor=#82b366;" parent="142" vertex="1">
                    <mxGeometry x="100" width="80" height="40" as="geometry">
                        <mxRectangle width="80" height="40" as="alternateBounds"/>
                    </mxGeometry>
                </mxCell>
                <mxCell id="145" value="&lt;table&gt;&lt;tbody&gt;&lt;tr&gt;&lt;td data-col-size=&quot;sm&quot; data-start=&quot;914&quot; data-end=&quot;925&quot;&gt;&lt;/td&gt;&lt;/tr&gt;&lt;/tbody&gt;&lt;/table&gt;&lt;table&gt;&lt;tbody&gt;&lt;tr&gt;&lt;td data-col-size=&quot;sm&quot; data-start=&quot;925&quot; data-end=&quot;964&quot;&gt;&lt;span data-start=&quot;927&quot; data-end=&quot;962&quot; style=&quot;font-weight: normal;&quot;&gt;&lt;font style=&quot;color: rgb(0, 0, 255);&quot;&gt;FK →calendar_dim.&lt;br&gt;date&lt;/font&gt;&lt;/span&gt;&lt;/td&gt;&lt;/tr&gt;&lt;/tbody&gt;&lt;/table&gt;" style="whiteSpace=wrap;html=1;align=center;fontStyle=1;fontSize=12.5;fillColor=#d5e8d4;strokeColor=#82b366;" parent="297" vertex="1">
                    <mxGeometry x="180" y="240" width="130" height="40" as="geometry"/>
                </mxCell>
                <mxCell id="146" value="" style="shape=table;startSize=0;container=1;collapsible=1;childLayout=tableLayout;fixedRows=1;rowLines=0;fontStyle=0;align=center;resizeLast=1;strokeColor=#82b366;fillColor=#d5e8d4;collapsible=0;whiteSpace=wrap;html=1;fontSize=12.5;" parent="297" vertex="1">
                    <mxGeometry y="280" width="180" height="30" as="geometry"/>
                </mxCell>
                <mxCell id="147" value="" style="shape=tableRow;horizontal=0;startSize=0;swimlaneHead=0;swimlaneBody=0;fillColor=#d5e8d4;collapsible=0;dropTarget=0;points=[[0,0.5],[1,0.5]];portConstraint=eastwest;top=0;left=0;right=0;bottom=0;fontSize=12.5;strokeColor=#82b366;" parent="146" vertex="1">
                    <mxGeometry width="180" height="30" as="geometry"/>
                </mxCell>
                <mxCell id="148" value="comment" style="shape=partialRectangle;connectable=0;fillColor=#d5e8d4;top=0;left=0;bottom=0;right=0;editable=1;overflow=hidden;fontSize=12.5;strokeColor=#82b366;" parent="147" vertex="1">
                    <mxGeometry width="100" height="30" as="geometry">
                        <mxRectangle width="100" height="30" as="alternateBounds"/>
                    </mxGeometry>
                </mxCell>
                <mxCell id="149" value="TEXT" style="shape=partialRectangle;connectable=0;fillColor=#d5e8d4;top=0;left=0;bottom=0;right=0;align=left;spacingLeft=6;overflow=hidden;fontSize=12.5;strokeColor=#82b366;" parent="147" vertex="1">
                    <mxGeometry x="100" width="80" height="30" as="geometry">
                        <mxRectangle width="80" height="30" as="alternateBounds"/>
                    </mxGeometry>
                </mxCell>
                <mxCell id="150" value="" style="whiteSpace=wrap;html=1;align=center;fontStyle=1;fontSize=12.5;fillColor=#d5e8d4;strokeColor=#82b366;" parent="297" vertex="1">
                    <mxGeometry x="180" y="280" width="130" height="30" as="geometry"/>
                </mxCell>
                <mxCell id="151" value="" style="shape=table;startSize=0;container=1;collapsible=1;childLayout=tableLayout;fixedRows=1;rowLines=0;fontStyle=0;align=center;resizeLast=1;strokeColor=#82b366;fillColor=#d5e8d4;collapsible=0;whiteSpace=wrap;html=1;fontSize=12.5;" parent="297" vertex="1">
                    <mxGeometry y="310" width="180" height="40" as="geometry"/>
                </mxCell>
                <mxCell id="152" value="" style="shape=tableRow;horizontal=0;startSize=0;swimlaneHead=0;swimlaneBody=0;fillColor=#d5e8d4;collapsible=0;dropTarget=0;points=[[0,0.5],[1,0.5]];portConstraint=eastwest;top=0;left=0;right=0;bottom=0;fontSize=12.5;strokeColor=#82b366;" parent="151" vertex="1">
                    <mxGeometry width="180" height="40" as="geometry"/>
                </mxCell>
                <mxCell id="153" value="category_id" style="shape=partialRectangle;connectable=0;fillColor=#d5e8d4;top=0;left=0;bottom=0;right=0;editable=1;overflow=hidden;fontSize=12.5;strokeColor=#82b366;" parent="152" vertex="1">
                    <mxGeometry width="100" height="40" as="geometry">
                        <mxRectangle width="100" height="40" as="alternateBounds"/>
                    </mxGeometry>
                </mxCell>
                <mxCell id="154" value="INT" style="shape=partialRectangle;connectable=0;fillColor=#d5e8d4;top=0;left=0;bottom=0;right=0;align=left;spacingLeft=6;overflow=hidden;fontSize=12.5;strokeColor=#82b366;" parent="152" vertex="1">
                    <mxGeometry x="100" width="80" height="40" as="geometry">
                        <mxRectangle width="80" height="40" as="alternateBounds"/>
                    </mxGeometry>
                </mxCell>
                <mxCell id="155" value="&lt;table&gt;&lt;tbody&gt;&lt;tr&gt;&lt;td data-col-size=&quot;sm&quot; data-start=&quot;2295&quot; data-end=&quot;2306&quot;&gt;&lt;/td&gt;&lt;/tr&gt;&lt;/tbody&gt;&lt;/table&gt;&lt;table&gt;&lt;tbody&gt;&lt;tr&gt;&lt;td data-col-size=&quot;sm&quot; data-start=&quot;2306&quot; data-end=&quot;2345&quot;&gt;&lt;span data-start=&quot;2308&quot; data-end=&quot;2343&quot;&gt;&lt;font style=&quot;color: rgb(0, 0, 255);&quot;&gt;FK →event_category.&lt;br&gt;category_id&lt;br&gt;&lt;/font&gt;&lt;/span&gt;&lt;/td&gt;&lt;/tr&gt;&lt;/tbody&gt;&lt;/table&gt;" style="whiteSpace=wrap;html=1;align=center;fontStyle=0;fontSize=12.5;fillColor=#d5e8d4;strokeColor=#82b366;" parent="297" vertex="1">
                    <mxGeometry x="180" y="310" width="130" height="40" as="geometry"/>
                </mxCell>
                <mxCell id="156" value="" style="shape=table;startSize=0;container=1;collapsible=1;childLayout=tableLayout;fixedRows=1;rowLines=0;fontStyle=0;align=center;resizeLast=1;strokeColor=#82b366;fillColor=#d5e8d4;collapsible=0;whiteSpace=wrap;html=1;fontSize=12.5;" parent="297" vertex="1">
                    <mxGeometry y="350" width="180" height="40" as="geometry"/>
                </mxCell>
                <mxCell id="157" value="" style="shape=tableRow;horizontal=0;startSize=0;swimlaneHead=0;swimlaneBody=0;fillColor=#d5e8d4;collapsible=0;dropTarget=0;points=[[0,0.5],[1,0.5]];portConstraint=eastwest;top=0;left=0;right=0;bottom=0;fontSize=12.5;strokeColor=#82b366;" parent="156" vertex="1">
                    <mxGeometry width="180" height="40" as="geometry"/>
                </mxCell>
                <mxCell id="158" value="problem_id" style="shape=partialRectangle;connectable=0;fillColor=#d5e8d4;top=0;left=0;bottom=0;right=0;editable=1;overflow=hidden;fontSize=12.5;strokeColor=#82b366;" parent="157" vertex="1">
                    <mxGeometry width="100" height="40" as="geometry">
                        <mxRectangle width="100" height="40" as="alternateBounds"/>
                    </mxGeometry>
                </mxCell>
                <mxCell id="159" value="INT" style="shape=partialRectangle;connectable=0;fillColor=#d5e8d4;top=0;left=0;bottom=0;right=0;align=left;spacingLeft=6;overflow=hidden;fontSize=12.5;strokeColor=#82b366;" parent="157" vertex="1">
                    <mxGeometry x="100" width="80" height="40" as="geometry">
                        <mxRectangle width="80" height="40" as="alternateBounds"/>
                    </mxGeometry>
                </mxCell>
                <mxCell id="160" value="&lt;font style=&quot;color: rgb(0, 0, 255); font-weight: normal;&quot;&gt;FK →problem_type.&lt;/font&gt;&lt;div&gt;&lt;font style=&quot;color: rgb(0, 0, 255); font-weight: normal;&quot;&gt;problem_id&lt;/font&gt;&lt;/div&gt;" style="whiteSpace=wrap;html=1;align=center;fontStyle=1;fontSize=12.5;fillColor=#d5e8d4;strokeColor=#82b366;" parent="297" vertex="1">
                    <mxGeometry x="180" y="350" width="130" height="40" as="geometry"/>
                </mxCell>
                <mxCell id="161" value="" style="shape=table;startSize=0;container=1;collapsible=1;childLayout=tableLayout;fixedRows=1;rowLines=0;fontStyle=0;align=center;resizeLast=1;strokeColor=#82b366;fillColor=#d5e8d4;collapsible=0;whiteSpace=wrap;html=1;fontSize=12.5;" parent="297" vertex="1">
                    <mxGeometry y="390" width="180" height="40" as="geometry"/>
                </mxCell>
                <mxCell id="162" value="" style="shape=tableRow;horizontal=0;startSize=0;swimlaneHead=0;swimlaneBody=0;fillColor=#d5e8d4;collapsible=0;dropTarget=0;points=[[0,0.5],[1,0.5]];portConstraint=eastwest;top=0;left=0;right=0;bottom=0;fontSize=12.5;strokeColor=#82b366;" parent="161" vertex="1">
                    <mxGeometry width="180" height="40" as="geometry"/>
                </mxCell>
                <mxCell id="163" value="cause_id" style="shape=partialRectangle;connectable=0;fillColor=#d5e8d4;top=0;left=0;bottom=0;right=0;editable=1;overflow=hidden;fontSize=12.5;strokeColor=#82b366;" parent="162" vertex="1">
                    <mxGeometry width="100" height="40" as="geometry">
                        <mxRectangle width="100" height="40" as="alternateBounds"/>
                    </mxGeometry>
                </mxCell>
                <mxCell id="164" value="INT" style="shape=partialRectangle;connectable=0;fillColor=#d5e8d4;top=0;left=0;bottom=0;right=0;align=left;spacingLeft=6;overflow=hidden;fontSize=12.5;strokeColor=#82b366;" parent="162" vertex="1">
                    <mxGeometry x="100" width="80" height="40" as="geometry">
                        <mxRectangle width="80" height="40" as="alternateBounds"/>
                    </mxGeometry>
                </mxCell>
                <mxCell id="165" value="&lt;font style=&quot;color: rgb(0, 0, 255); font-weight: normal;&quot;&gt;FK →root_cause.&lt;/font&gt;&lt;div&gt;&lt;font style=&quot;color: rgb(0, 0, 255); font-weight: normal;&quot;&gt;cause_id&lt;/font&gt;&lt;/div&gt;" style="whiteSpace=wrap;html=1;align=center;fontStyle=1;fontSize=12.5;fillColor=#d5e8d4;strokeColor=#82b366;" parent="297" vertex="1">
                    <mxGeometry x="180" y="390" width="130" height="40" as="geometry"/>
                </mxCell>
                <mxCell id="166" value="" style="shape=table;startSize=0;container=1;collapsible=1;childLayout=tableLayout;fixedRows=1;rowLines=0;fontStyle=0;align=center;resizeLast=1;strokeColor=#82b366;fillColor=#d5e8d4;collapsible=0;whiteSpace=wrap;html=1;fontSize=12.5;" parent="297" vertex="1">
                    <mxGeometry y="430" width="180" height="30" as="geometry"/>
                </mxCell>
                <mxCell id="167" value="" style="shape=tableRow;horizontal=0;startSize=0;swimlaneHead=0;swimlaneBody=0;fillColor=#d5e8d4;collapsible=0;dropTarget=0;points=[[0,0.5],[1,0.5]];portConstraint=eastwest;top=0;left=0;right=0;bottom=0;fontSize=12.5;strokeColor=#82b366;" parent="166" vertex="1">
                    <mxGeometry width="180" height="30" as="geometry"/>
                </mxCell>
                <mxCell id="168" value="severity_score" style="shape=partialRectangle;connectable=0;fillColor=#d5e8d4;top=0;left=0;bottom=0;right=0;editable=1;overflow=hidden;fontSize=12.5;strokeColor=#82b366;" parent="167" vertex="1">
                    <mxGeometry width="100" height="30" as="geometry">
                        <mxRectangle width="100" height="30" as="alternateBounds"/>
                    </mxGeometry>
                </mxCell>
                <mxCell id="169" value="FLOAT    " style="shape=partialRectangle;connectable=0;fillColor=#d5e8d4;top=0;left=0;bottom=0;right=0;align=left;spacingLeft=6;overflow=hidden;fontSize=12.5;strokeColor=#82b366;" parent="167" vertex="1">
                    <mxGeometry x="100" width="80" height="30" as="geometry">
                        <mxRectangle width="80" height="30" as="alternateBounds"/>
                    </mxGeometry>
                </mxCell>
                <mxCell id="170" value="" style="whiteSpace=wrap;html=1;align=center;fontStyle=1;fontSize=12.5;fillColor=#d5e8d4;strokeColor=#82b366;" parent="297" vertex="1">
                    <mxGeometry x="180" y="430" width="130" height="30" as="geometry"/>
                </mxCell>
                <mxCell id="173" value="" style="shape=table;startSize=0;container=1;collapsible=1;childLayout=tableLayout;fixedRows=1;rowLines=0;fontStyle=0;align=center;resizeLast=1;strokeColor=#82b366;fillColor=#d5e8d4;collapsible=0;whiteSpace=wrap;html=1;fontSize=12.5;" parent="297" vertex="1">
                    <mxGeometry y="460" width="180" height="30" as="geometry"/>
                </mxCell>
                <mxCell id="174" value="" style="shape=tableRow;horizontal=0;startSize=0;swimlaneHead=0;swimlaneBody=0;fillColor=#d5e8d4;collapsible=0;dropTarget=0;points=[[0,0.5],[1,0.5]];portConstraint=eastwest;top=0;left=0;right=0;bottom=0;fontSize=12.5;strokeColor=#82b366;" parent="173" vertex="1">
                    <mxGeometry width="180" height="30" as="geometry"/>
                </mxCell>
                <mxCell id="175" value="responsible_area" style="shape=partialRectangle;connectable=0;fillColor=#d5e8d4;top=0;left=0;bottom=0;right=0;editable=1;overflow=hidden;fontSize=12.5;strokeColor=#82b366;" parent="174" vertex="1">
                    <mxGeometry width="100" height="30" as="geometry">
                        <mxRectangle width="100" height="30" as="alternateBounds"/>
                    </mxGeometry>
                </mxCell>
                <mxCell id="176" value="TEXT" style="shape=partialRectangle;connectable=0;fillColor=#d5e8d4;top=0;left=0;bottom=0;right=0;align=left;spacingLeft=6;overflow=hidden;fontSize=12.5;strokeColor=#82b366;" parent="174" vertex="1">
                    <mxGeometry x="100" width="80" height="30" as="geometry">
                        <mxRectangle width="80" height="30" as="alternateBounds"/>
                    </mxGeometry>
                </mxCell>
                <mxCell id="177" value="" style="whiteSpace=wrap;html=1;align=center;fontStyle=1;fontSize=12.5;fillColor=#d5e8d4;strokeColor=#82b366;" parent="297" vertex="1">
                    <mxGeometry x="180" y="460" width="130" height="30" as="geometry"/>
                </mxCell>
                <mxCell id="298" value="" style="group;fontSize=12.5;fillColor=#ffe6cc;strokeColor=#d79b00;" parent="1" vertex="1" connectable="0">
                    <mxGeometry x="880" y="250" width="310" height="120" as="geometry"/>
                </mxCell>
                <mxCell id="200" value="" style="shape=table;startSize=0;container=1;collapsible=1;childLayout=tableLayout;fixedRows=1;rowLines=0;fontStyle=1;align=center;resizeLast=1;strokeColor=#d79b00;fillColor=#ffe6cc;collapsible=0;whiteSpace=wrap;html=1;fontFamily=Helvetica;fontSize=12.5;" parent="298" vertex="1">
                    <mxGeometry y="30" width="180" height="30" as="geometry"/>
                </mxCell>
                <mxCell id="201" value="" style="shape=tableRow;horizontal=0;startSize=0;swimlaneHead=0;swimlaneBody=0;fillColor=#ffe6cc;collapsible=0;dropTarget=0;points=[[0,0.5],[1,0.5]];portConstraint=eastwest;top=0;left=0;right=0;bottom=0;fontSize=12.5;strokeColor=#d79b00;" parent="200" vertex="1">
                    <mxGeometry width="180" height="30" as="geometry"/>
                </mxCell>
                <mxCell id="202" value="Column Name" style="shape=partialRectangle;connectable=0;fillColor=#ffe6cc;top=0;left=0;bottom=0;right=0;editable=1;overflow=hidden;fontStyle=1;fontSize=12.5;strokeColor=#d79b00;" parent="201" vertex="1">
                    <mxGeometry width="100" height="30" as="geometry">
                        <mxRectangle width="100" height="30" as="alternateBounds"/>
                    </mxGeometry>
                </mxCell>
                <mxCell id="203" value="type" style="shape=partialRectangle;connectable=0;fillColor=#ffe6cc;top=0;left=0;bottom=0;right=0;align=left;spacingLeft=6;overflow=hidden;fontStyle=1;fontSize=12.5;strokeColor=#d79b00;" parent="201" vertex="1">
                    <mxGeometry x="100" width="80" height="30" as="geometry">
                        <mxRectangle width="80" height="30" as="alternateBounds"/>
                    </mxGeometry>
                </mxCell>
                <mxCell id="204" value="&lt;b&gt;&lt;font&gt;event_category&lt;/font&gt;&lt;/b&gt;" style="whiteSpace=wrap;html=1;align=center;fontSize=12.5;fillColor=#ffe6cc;strokeColor=#d79b00;" parent="298" vertex="1">
                    <mxGeometry width="310" height="30" as="geometry"/>
                </mxCell>
                <mxCell id="205" value="&lt;span&gt;key&lt;/span&gt;" style="whiteSpace=wrap;html=1;align=center;fontStyle=1;fontSize=12.5;fillColor=#ffe6cc;strokeColor=#d79b00;" parent="298" vertex="1">
                    <mxGeometry x="180" y="30" width="130" height="30" as="geometry"/>
                </mxCell>
                <mxCell id="206" value="" style="shape=table;startSize=0;container=1;collapsible=1;childLayout=tableLayout;fixedRows=1;rowLines=0;fontStyle=0;align=center;resizeLast=1;strokeColor=#d79b00;fillColor=#ffe6cc;collapsible=0;whiteSpace=wrap;html=1;fontSize=12.5;" parent="298" vertex="1">
                    <mxGeometry y="60" width="180" height="30" as="geometry"/>
                </mxCell>
                <mxCell id="207" value="" style="shape=tableRow;horizontal=0;startSize=0;swimlaneHead=0;swimlaneBody=0;fillColor=#ffe6cc;collapsible=0;dropTarget=0;points=[[0,0.5],[1,0.5]];portConstraint=eastwest;top=0;left=0;right=0;bottom=0;fontSize=12.5;strokeColor=#d79b00;" parent="206" vertex="1">
                    <mxGeometry width="180" height="30" as="geometry"/>
                </mxCell>
                <mxCell id="208" value="category_id" style="shape=partialRectangle;connectable=0;fillColor=#ffe6cc;top=0;left=0;bottom=0;right=0;editable=1;overflow=hidden;fontSize=12.5;strokeColor=#d79b00;" parent="207" vertex="1">
                    <mxGeometry width="100" height="30" as="geometry">
                        <mxRectangle width="100" height="30" as="alternateBounds"/>
                    </mxGeometry>
                </mxCell>
                <mxCell id="209" value="SERIAL" style="shape=partialRectangle;connectable=0;fillColor=#ffe6cc;top=0;left=0;bottom=0;right=0;align=left;spacingLeft=6;overflow=hidden;fontSize=12.5;strokeColor=#d79b00;" parent="207" vertex="1">
                    <mxGeometry x="100" width="80" height="30" as="geometry">
                        <mxRectangle width="80" height="30" as="alternateBounds"/>
                    </mxGeometry>
                </mxCell>
                <mxCell id="210" value="&lt;span style=&quot;font-weight: 400;&quot;&gt;&lt;font style=&quot;color: rgb(0, 0, 255);&quot;&gt;PK&lt;/font&gt;&lt;/span&gt;" style="whiteSpace=wrap;html=1;align=center;fontStyle=1;fontSize=12.5;fillColor=#ffe6cc;strokeColor=#d79b00;" parent="298" vertex="1">
                    <mxGeometry x="180" y="60" width="130" height="30" as="geometry"/>
                </mxCell>
                <mxCell id="211" value="" style="shape=table;startSize=0;container=1;collapsible=1;childLayout=tableLayout;fixedRows=1;rowLines=0;fontStyle=0;align=center;resizeLast=1;strokeColor=#d79b00;fillColor=#ffe6cc;collapsible=0;whiteSpace=wrap;html=1;fontSize=12.5;" parent="298" vertex="1">
                    <mxGeometry y="90" width="180" height="30" as="geometry"/>
                </mxCell>
                <mxCell id="212" value="" style="shape=tableRow;horizontal=0;startSize=0;swimlaneHead=0;swimlaneBody=0;fillColor=#ffe6cc;collapsible=0;dropTarget=0;points=[[0,0.5],[1,0.5]];portConstraint=eastwest;top=0;left=0;right=0;bottom=0;fontSize=12.5;strokeColor=#d79b00;" parent="211" vertex="1">
                    <mxGeometry width="180" height="30" as="geometry"/>
                </mxCell>
                <mxCell id="213" value="label" style="shape=partialRectangle;connectable=0;fillColor=#ffe6cc;top=0;left=0;bottom=0;right=0;editable=1;overflow=hidden;fontSize=12.5;strokeColor=#d79b00;" parent="212" vertex="1">
                    <mxGeometry width="100" height="30" as="geometry">
                        <mxRectangle width="100" height="30" as="alternateBounds"/>
                    </mxGeometry>
                </mxCell>
                <mxCell id="214" value="TEXT" style="shape=partialRectangle;connectable=0;fillColor=#ffe6cc;top=0;left=0;bottom=0;right=0;align=left;spacingLeft=6;overflow=hidden;fontSize=12.5;strokeColor=#d79b00;" parent="212" vertex="1">
                    <mxGeometry x="100" width="80" height="30" as="geometry">
                        <mxRectangle width="80" height="30" as="alternateBounds"/>
                    </mxGeometry>
                </mxCell>
                <mxCell id="215" value="" style="whiteSpace=wrap;html=1;align=center;fontStyle=1;fontSize=12.5;fillColor=#ffe6cc;strokeColor=#d79b00;" parent="298" vertex="1">
                    <mxGeometry x="180" y="90" width="130" height="30" as="geometry"/>
                </mxCell>
                <mxCell id="299" value="" style="group;fontSize=12.5;fillColor=#ffe6cc;strokeColor=#d79b00;" parent="1" vertex="1" connectable="0">
                    <mxGeometry x="880" y="410" width="310" height="120" as="geometry"/>
                </mxCell>
                <mxCell id="226" value="" style="shape=table;startSize=0;container=1;collapsible=1;childLayout=tableLayout;fixedRows=1;rowLines=0;fontStyle=1;align=center;resizeLast=1;strokeColor=#d79b00;fillColor=#ffe6cc;collapsible=0;whiteSpace=wrap;html=1;fontFamily=Helvetica;fontSize=12.5;" parent="299" vertex="1">
                    <mxGeometry y="30" width="180" height="30" as="geometry"/>
                </mxCell>
                <mxCell id="227" value="" style="shape=tableRow;horizontal=0;startSize=0;swimlaneHead=0;swimlaneBody=0;fillColor=#ffe6cc;collapsible=0;dropTarget=0;points=[[0,0.5],[1,0.5]];portConstraint=eastwest;top=0;left=0;right=0;bottom=0;fontSize=12.5;strokeColor=#d79b00;" parent="226" vertex="1">
                    <mxGeometry width="180" height="30" as="geometry"/>
                </mxCell>
                <mxCell id="228" value="Column Name" style="shape=partialRectangle;connectable=0;fillColor=#ffe6cc;top=0;left=0;bottom=0;right=0;editable=1;overflow=hidden;fontStyle=1;fontSize=12.5;strokeColor=#d79b00;" parent="227" vertex="1">
                    <mxGeometry width="100" height="30" as="geometry">
                        <mxRectangle width="100" height="30" as="alternateBounds"/>
                    </mxGeometry>
                </mxCell>
                <mxCell id="229" value="type" style="shape=partialRectangle;connectable=0;fillColor=#ffe6cc;top=0;left=0;bottom=0;right=0;align=left;spacingLeft=6;overflow=hidden;fontStyle=1;fontSize=12.5;strokeColor=#d79b00;" parent="227" vertex="1">
                    <mxGeometry x="100" width="80" height="30" as="geometry">
                        <mxRectangle width="80" height="30" as="alternateBounds"/>
                    </mxGeometry>
                </mxCell>
                <mxCell id="230" value="&lt;b&gt;&lt;font&gt;problem_type&lt;/font&gt;&lt;/b&gt;" style="whiteSpace=wrap;html=1;align=center;fontSize=12.5;fillColor=#ffe6cc;strokeColor=#d79b00;" parent="299" vertex="1">
                    <mxGeometry width="310" height="30" as="geometry"/>
                </mxCell>
                <mxCell id="231" value="&lt;span&gt;key&lt;/span&gt;" style="whiteSpace=wrap;html=1;align=center;fontStyle=1;fontSize=12.5;fillColor=#ffe6cc;strokeColor=#d79b00;" parent="299" vertex="1">
                    <mxGeometry x="180" y="30" width="130" height="30" as="geometry"/>
                </mxCell>
                <mxCell id="232" value="" style="shape=table;startSize=0;container=1;collapsible=1;childLayout=tableLayout;fixedRows=1;rowLines=0;fontStyle=0;align=center;resizeLast=1;strokeColor=#d79b00;fillColor=#ffe6cc;collapsible=0;whiteSpace=wrap;html=1;fontSize=12.5;" parent="299" vertex="1">
                    <mxGeometry y="60" width="180" height="30" as="geometry"/>
                </mxCell>
                <mxCell id="233" value="" style="shape=tableRow;horizontal=0;startSize=0;swimlaneHead=0;swimlaneBody=0;fillColor=#ffe6cc;collapsible=0;dropTarget=0;points=[[0,0.5],[1,0.5]];portConstraint=eastwest;top=0;left=0;right=0;bottom=0;fontSize=12.5;strokeColor=#d79b00;" parent="232" vertex="1">
                    <mxGeometry width="180" height="30" as="geometry"/>
                </mxCell>
                <mxCell id="234" value="problem_id" style="shape=partialRectangle;connectable=0;fillColor=#ffe6cc;top=0;left=0;bottom=0;right=0;editable=1;overflow=hidden;fontSize=12.5;strokeColor=#d79b00;" parent="233" vertex="1">
                    <mxGeometry width="100" height="30" as="geometry">
                        <mxRectangle width="100" height="30" as="alternateBounds"/>
                    </mxGeometry>
                </mxCell>
                <mxCell id="235" value="SERIAL" style="shape=partialRectangle;connectable=0;fillColor=#ffe6cc;top=0;left=0;bottom=0;right=0;align=left;spacingLeft=6;overflow=hidden;fontSize=12.5;strokeColor=#d79b00;" parent="233" vertex="1">
                    <mxGeometry x="100" width="80" height="30" as="geometry">
                        <mxRectangle width="80" height="30" as="alternateBounds"/>
                    </mxGeometry>
                </mxCell>
                <mxCell id="236" value="&lt;span style=&quot;font-weight: 400;&quot;&gt;&lt;font style=&quot;color: rgb(0, 0, 255);&quot;&gt;PK&lt;/font&gt;&lt;/span&gt;" style="whiteSpace=wrap;html=1;align=center;fontStyle=1;fontSize=12.5;fillColor=#ffe6cc;strokeColor=#d79b00;" parent="299" vertex="1">
                    <mxGeometry x="180" y="60" width="130" height="30" as="geometry"/>
                </mxCell>
                <mxCell id="237" value="" style="shape=table;startSize=0;container=1;collapsible=1;childLayout=tableLayout;fixedRows=1;rowLines=0;fontStyle=0;align=center;resizeLast=1;strokeColor=#d79b00;fillColor=#ffe6cc;collapsible=0;whiteSpace=wrap;html=1;fontSize=12.5;" parent="299" vertex="1">
                    <mxGeometry y="90" width="180" height="30" as="geometry"/>
                </mxCell>
                <mxCell id="238" value="" style="shape=tableRow;horizontal=0;startSize=0;swimlaneHead=0;swimlaneBody=0;fillColor=#ffe6cc;collapsible=0;dropTarget=0;points=[[0,0.5],[1,0.5]];portConstraint=eastwest;top=0;left=0;right=0;bottom=0;fontSize=12.5;strokeColor=#d79b00;" parent="237" vertex="1">
                    <mxGeometry width="180" height="30" as="geometry"/>
                </mxCell>
                <mxCell id="239" value="description" style="shape=partialRectangle;connectable=0;fillColor=#ffe6cc;top=0;left=0;bottom=0;right=0;editable=1;overflow=hidden;fontSize=12.5;strokeColor=#d79b00;" parent="238" vertex="1">
                    <mxGeometry width="100" height="30" as="geometry">
                        <mxRectangle width="100" height="30" as="alternateBounds"/>
                    </mxGeometry>
                </mxCell>
                <mxCell id="240" value="TEXT" style="shape=partialRectangle;connectable=0;fillColor=#ffe6cc;top=0;left=0;bottom=0;right=0;align=left;spacingLeft=6;overflow=hidden;fontSize=12.5;strokeColor=#d79b00;" parent="238" vertex="1">
                    <mxGeometry x="100" width="80" height="30" as="geometry">
                        <mxRectangle width="80" height="30" as="alternateBounds"/>
                    </mxGeometry>
                </mxCell>
                <mxCell id="241" value="" style="whiteSpace=wrap;html=1;align=center;fontStyle=1;fontSize=12.5;fillColor=#ffe6cc;strokeColor=#d79b00;" parent="299" vertex="1">
                    <mxGeometry x="180" y="90" width="130" height="30" as="geometry"/>
                </mxCell>
                <mxCell id="300" value="" style="group;fontSize=12.5;fillColor=#ffe6cc;strokeColor=#d79b00;" parent="1" vertex="1" connectable="0">
                    <mxGeometry x="880" y="560" width="310" height="120" as="geometry"/>
                </mxCell>
                <mxCell id="242" value="" style="shape=table;startSize=0;container=1;collapsible=1;childLayout=tableLayout;fixedRows=1;rowLines=0;fontStyle=1;align=center;resizeLast=1;strokeColor=#d79b00;fillColor=#ffe6cc;collapsible=0;whiteSpace=wrap;html=1;fontFamily=Helvetica;fontSize=12.5;" parent="300" vertex="1">
                    <mxGeometry y="30" width="180" height="30" as="geometry"/>
                </mxCell>
                <mxCell id="243" value="" style="shape=tableRow;horizontal=0;startSize=0;swimlaneHead=0;swimlaneBody=0;fillColor=#ffe6cc;collapsible=0;dropTarget=0;points=[[0,0.5],[1,0.5]];portConstraint=eastwest;top=0;left=0;right=0;bottom=0;fontSize=12.5;strokeColor=#d79b00;" parent="242" vertex="1">
                    <mxGeometry width="180" height="30" as="geometry"/>
                </mxCell>
                <mxCell id="244" value="Column Name" style="shape=partialRectangle;connectable=0;fillColor=#ffe6cc;top=0;left=0;bottom=0;right=0;editable=1;overflow=hidden;fontStyle=1;fontSize=12.5;strokeColor=#d79b00;" parent="243" vertex="1">
                    <mxGeometry width="100" height="30" as="geometry">
                        <mxRectangle width="100" height="30" as="alternateBounds"/>
                    </mxGeometry>
                </mxCell>
                <mxCell id="245" value="type" style="shape=partialRectangle;connectable=0;fillColor=#ffe6cc;top=0;left=0;bottom=0;right=0;align=left;spacingLeft=6;overflow=hidden;fontStyle=1;fontSize=12.5;strokeColor=#d79b00;" parent="243" vertex="1">
                    <mxGeometry x="100" width="80" height="30" as="geometry">
                        <mxRectangle width="80" height="30" as="alternateBounds"/>
                    </mxGeometry>
                </mxCell>
                <mxCell id="246" value="&lt;b&gt;&lt;font&gt;root_cause&lt;/font&gt;&lt;/b&gt;" style="whiteSpace=wrap;html=1;align=center;fontSize=12.5;fillColor=#ffe6cc;strokeColor=#d79b00;" parent="300" vertex="1">
                    <mxGeometry width="310" height="30" as="geometry"/>
                </mxCell>
                <mxCell id="247" value="&lt;span&gt;key&lt;/span&gt;" style="whiteSpace=wrap;html=1;align=center;fontStyle=1;fontSize=12.5;fillColor=#ffe6cc;strokeColor=#d79b00;" parent="300" vertex="1">
                    <mxGeometry x="180" y="30" width="130" height="30" as="geometry"/>
                </mxCell>
                <mxCell id="248" value="" style="shape=table;startSize=0;container=1;collapsible=1;childLayout=tableLayout;fixedRows=1;rowLines=0;fontStyle=0;align=center;resizeLast=1;strokeColor=#d79b00;fillColor=#ffe6cc;collapsible=0;whiteSpace=wrap;html=1;fontSize=12.5;" parent="300" vertex="1">
                    <mxGeometry y="60" width="180" height="30" as="geometry"/>
                </mxCell>
                <mxCell id="249" value="" style="shape=tableRow;horizontal=0;startSize=0;swimlaneHead=0;swimlaneBody=0;fillColor=#ffe6cc;collapsible=0;dropTarget=0;points=[[0,0.5],[1,0.5]];portConstraint=eastwest;top=0;left=0;right=0;bottom=0;fontSize=12.5;strokeColor=#d79b00;" parent="248" vertex="1">
                    <mxGeometry width="180" height="30" as="geometry"/>
                </mxCell>
                <mxCell id="250" value="cause_id" style="shape=partialRectangle;connectable=0;fillColor=#ffe6cc;top=0;left=0;bottom=0;right=0;editable=1;overflow=hidden;fontSize=12.5;strokeColor=#d79b00;" parent="249" vertex="1">
                    <mxGeometry width="100" height="30" as="geometry">
                        <mxRectangle width="100" height="30" as="alternateBounds"/>
                    </mxGeometry>
                </mxCell>
                <mxCell id="251" value="SERIAL" style="shape=partialRectangle;connectable=0;fillColor=#ffe6cc;top=0;left=0;bottom=0;right=0;align=left;spacingLeft=6;overflow=hidden;fontSize=12.5;strokeColor=#d79b00;" parent="249" vertex="1">
                    <mxGeometry x="100" width="80" height="30" as="geometry">
                        <mxRectangle width="80" height="30" as="alternateBounds"/>
                    </mxGeometry>
                </mxCell>
                <mxCell id="252" value="&lt;span style=&quot;font-weight: 400;&quot;&gt;&lt;font style=&quot;color: rgb(0, 0, 255);&quot;&gt;PK&lt;/font&gt;&lt;/span&gt;" style="whiteSpace=wrap;html=1;align=center;fontStyle=1;fontSize=12.5;fillColor=#ffe6cc;strokeColor=#d79b00;" parent="300" vertex="1">
                    <mxGeometry x="180" y="60" width="130" height="30" as="geometry"/>
                </mxCell>
                <mxCell id="253" value="" style="shape=table;startSize=0;container=1;collapsible=1;childLayout=tableLayout;fixedRows=1;rowLines=0;fontStyle=0;align=center;resizeLast=1;strokeColor=#d79b00;fillColor=#ffe6cc;collapsible=0;whiteSpace=wrap;html=1;fontSize=12.5;" parent="300" vertex="1">
                    <mxGeometry y="90" width="180" height="30" as="geometry"/>
                </mxCell>
                <mxCell id="254" value="" style="shape=tableRow;horizontal=0;startSize=0;swimlaneHead=0;swimlaneBody=0;fillColor=#ffe6cc;collapsible=0;dropTarget=0;points=[[0,0.5],[1,0.5]];portConstraint=eastwest;top=0;left=0;right=0;bottom=0;fontSize=12.5;strokeColor=#d79b00;" parent="253" vertex="1">
                    <mxGeometry width="180" height="30" as="geometry"/>
                </mxCell>
                <mxCell id="255" value="description" style="shape=partialRectangle;connectable=0;fillColor=#ffe6cc;top=0;left=0;bottom=0;right=0;editable=1;overflow=hidden;fontSize=12.5;strokeColor=#d79b00;" parent="254" vertex="1">
                    <mxGeometry width="100" height="30" as="geometry">
                        <mxRectangle width="100" height="30" as="alternateBounds"/>
                    </mxGeometry>
                </mxCell>
                <mxCell id="256" value="TEXT" style="shape=partialRectangle;connectable=0;fillColor=#ffe6cc;top=0;left=0;bottom=0;right=0;align=left;spacingLeft=6;overflow=hidden;fontSize=12.5;strokeColor=#d79b00;" parent="254" vertex="1">
                    <mxGeometry x="100" width="80" height="30" as="geometry">
                        <mxRectangle width="80" height="30" as="alternateBounds"/>
                    </mxGeometry>
                </mxCell>
                <mxCell id="257" value="" style="whiteSpace=wrap;html=1;align=center;fontStyle=1;fontSize=12.5;fillColor=#ffe6cc;strokeColor=#d79b00;" parent="300" vertex="1">
                    <mxGeometry x="180" y="90" width="130" height="30" as="geometry"/>
                </mxCell>
                <mxCell id="301" value="" style="edgeStyle=entityRelationEdgeStyle;fontSize=12.5;html=1;endArrow=ERoneToMany;entryX=1;entryY=0.5;entryDx=0;entryDy=0;exitX=0;exitY=0.5;exitDx=0;exitDy=0;" parent="1" source="104" target="71" edge="1">
                    <mxGeometry width="100" height="100" relative="1" as="geometry">
                        <mxPoint x="830" y="400" as="sourcePoint"/>
                        <mxPoint x="960" y="230" as="targetPoint"/>
                    </mxGeometry>
                </mxCell>
                <mxCell id="302" value="" style="edgeStyle=entityRelationEdgeStyle;fontSize=12.5;html=1;endArrow=ERoneToMany;entryX=1;entryY=0.25;entryDx=0;entryDy=0;exitX=0;exitY=0.5;exitDx=0;exitDy=0;" parent="1" source="142" target="269" edge="1">
                    <mxGeometry width="100" height="100" relative="1" as="geometry">
                        <mxPoint x="1070" y="280" as="sourcePoint"/>
                        <mxPoint x="920" y="120" as="targetPoint"/>
                    </mxGeometry>
                </mxCell>
                <mxCell id="303" value="" style="edgeStyle=entityRelationEdgeStyle;fontSize=12.5;html=1;endArrow=ERoneToMany;entryX=0;entryY=0.5;entryDx=0;entryDy=0;exitX=1;exitY=0.5;exitDx=0;exitDy=0;" parent="1" source="155" target="207" edge="1">
                    <mxGeometry width="100" height="100" relative="1" as="geometry">
                        <mxPoint x="490" y="650.5" as="sourcePoint"/>
                        <mxPoint x="390" y="618.5" as="targetPoint"/>
                    </mxGeometry>
                </mxCell>
                <mxCell id="304" value="" style="edgeStyle=entityRelationEdgeStyle;fontSize=12.5;html=1;endArrow=ERoneToMany;entryX=0;entryY=0.5;entryDx=0;entryDy=0;exitX=1;exitY=0.5;exitDx=0;exitDy=0;" parent="1" source="160" target="233" edge="1">
                    <mxGeometry width="100" height="100" relative="1" as="geometry">
                        <mxPoint x="820" y="620" as="sourcePoint"/>
                        <mxPoint x="930" y="415" as="targetPoint"/>
                    </mxGeometry>
                </mxCell>
                <mxCell id="305" value="" style="edgeStyle=entityRelationEdgeStyle;fontSize=12.5;html=1;endArrow=ERoneToMany;entryX=0;entryY=0.5;entryDx=0;entryDy=0;exitX=1;exitY=0.5;exitDx=0;exitDy=0;" parent="1" source="165" target="249" edge="1">
                    <mxGeometry width="100" height="100" relative="1" as="geometry">
                        <mxPoint x="820" y="660" as="sourcePoint"/>
                        <mxPoint x="930" y="570" as="targetPoint"/>
                    </mxGeometry>
                </mxCell>
            </root>
        </mxGraphModel>
    </diagram>
</mxfile>